<svg xmlns="http://www.w3.org/2000/svg" version="1.1" xmlns:xlink="http://www.w3.org/1999/xlink" xmlns:svgjs="http://svgjs.com/svgjs" width="1064.000000pt" height="1280.000000pt"><svg version="1.0" xmlns="http://www.w3.org/2000/svg" width="1064.000000pt" height="1280.000000pt" viewBox="0 0 1064.000000 1280.000000" preserveAspectRatio="xMidYMid meet">
<metadata>
Created by potrace 1.15, written by Peter Selinger 2001-2017
</metadata>
<g transform="translate(0.000000,1280.000000) scale(0.100000,-0.100000)" fill="#000000" stroke="none">
<path d="M5705 12785 c-196 -21 -3265 -455 -3330 -470 -362 -89 -660 -510
-724 -1025 -7 -54 -11 -537 -12 -1364 -1 -705 -4 -1553 -6 -1886 l-5 -606
-441 -62 c-484 -69 -527 -79 -654 -158 -240 -149 -427 -451 -504 -814 -30
-141 -33 -430 -6 -560 56 -263 175 -479 328 -594 73 -55 1132 -632 1214 -662
l60 -22 -4 -1523 c-3 -1590 -2 -1640 40 -1817 50 -217 171 -422 311 -530 68
-52 1142 -636 1222 -665 123 -43 132 -42 1851 201 864 122 1620 231 1680 242
1233 229 2337 1177 3064 2628 400 799 671 1731 785 2702 89 750 87 1542 -5
2250 -228 1766 -986 3148 -2079 3790 -244 143 -1233 673 -1351 724 -452 195
-953 272 -1434 221z m1400 -2773 c40 -11 170 -166 287 -342 105 -158 254 -455
327 -650 382 -1036 385 -2471 7 -3614 -381 -1151 -1089 -1934 -1950 -2156
-122 -32 -154 -37 -931 -145 -297 -41 -550 -78 -562 -80 l-23 -5 0 939 0 940
33 6 c17 3 528 75 1134 160 607 85 1124 160 1150 165 75 17 221 94 299 159
213 177 378 498 423 825 16 111 13 345 -4 453 -41 250 -162 484 -316 611 -65
53 -1095 619 -1212 666 -129 51 -161 49 -853 -48 -335 -47 -618 -86 -627 -86
-16 0 -17 61 -15 937 l3 937 1155 163 c635 89 1189 167 1230 172 85 11 399 6
445 -7z"></path>
</g>
</svg><style>@media (prefers-color-scheme: light) { :root { filter: none; } }
</style></svg>