<?xml version="1.0" standalone="no"?>
<svg viewBox="0 0 200 200" xmlns="http://www.w3.org/2000/svg">
  <path fill="#BAE6FF" d="M34.9,-46.5C49,-37.7,66.8,-32.6,72.7,-21.9C78.6,-11.2,72.5,5.2,65.4,19.4C58.3,33.7,50.2,45.8,39.1,56.2C28,66.7,14,75.4,-2.6,78.9C-19.1,82.5,-38.3,80.8,-48.8,70.2C-59.4,59.6,-61.4,40.1,-64.1,22.9C-66.9,5.7,-70.4,-9.1,-68.1,-24C-65.9,-38.9,-57.8,-53.7,-45.5,-63.1C-33.2,-72.5,-16.6,-76.5,-3.1,-72.2C10.4,-67.9,20.7,-55.3,34.9,-46.5Z" transform="translate(100 100)" />
</svg>
